<svg xmlns="http://www.w3.org/2000/svg">
  <symbol id="search" width="24" height="24">
    <path d="M9.815 3.19c3.658887 0 6.625 2.966114 6.625 6.625 0 1.286195-.366525 2.486784-1.000825 3.503015l4.926841 4.933208c.585422.58615.584831 1.535898-.00132 2.12132-.58615.585422-1.535897.58483-2.12132-.00132l-4.926364-4.931422C12.300994 16.073716 11.100773 16.44 9.815 16.44c-3.658886 0-6.625-2.966114-6.625-6.625S6.156114 3.19 9.815 3.19zm0 2.25c-2.416246 0-4.375 1.958754-4.375 4.375s1.958754 4.375 4.375 4.375 4.375-1.958754 4.375-4.375S12.231246 5.44 9.815 5.44z"></path>
  </symbol>
  <symbol id="settings" width="24" height="24">
    <path d="M12 16.1667c-2.3008 0-4.1667-1.865-4.1667-4.1667 0-2.3008 1.8659-4.1667 4.1667-4.1667 2.3017 0 4.1667 1.8659 4.1667 4.1667C16.1642 14.3 14.3 16.1642 12 16.1667m8.75-6.25h-1.5517a7.4509 7.4509 0 0 0-.6358-1.5334L19.66 7.2867c.4883-.4884.4883-1.2792 0-1.7675v-.0009l-1.1792-1.1775c-.4883-.4875-1.2791-.4875-1.7675 0L15.615 5.4383a7.418 7.418 0 0 0-1.5317-.6358V3.25c0-.6908-.56-1.25-1.25-1.25h-1.6666c-.6909 0-1.25.5592-1.25 1.25v1.5525a7.444 7.444 0 0 0-1.5325.6358L7.2858 4.3408c-.4883-.4875-1.2791-.4875-1.7675 0L4.3392 5.5192c-.4884.4883-.4884 1.2791-.0009 1.7675l.0009.0008L5.4375 8.385a7.4371 7.4371 0 0 0-.6358 1.5317H3.25c-.6908 0-1.25.5591-1.25 1.25v1.6666c0 .69.5592 1.25 1.25 1.25h1.5517a7.3794 7.3794 0 0 0 .6358 1.5325L4.3383 16.715c-.4883.4883-.4883 1.2792 0 1.7675l1.1784 1.1783c.4958.4692 1.2725.4692 1.7683 0l1.0983-1.0975c.4859.2684 1 .4817 1.5334.6367v1.55c0 .69.5591 1.25 1.25 1.25h1.6666c.69 0 1.25-.56 1.25-1.25V19.2a7.444 7.444 0 0 0 1.5325-.6358l1.0984 1.0975c.4883.4875 1.2791.4875 1.7675 0l1.1783-1.1784c.4875-.4883.4875-1.2791 0-1.7675l-1.0975-1.0975c.2683-.4858.4817-1 .6358-1.5333H20.75c.69 0 1.25-.56 1.25-1.25V11.1667c0-.6909-.56-1.25-1.25-1.25"></path>
  </symbol>
</svg>